<svg width="289" height="74" viewBox="0 0 289 74" fill="none" xmlns="http://www.w3.org/2000/svg">
<path fill-rule="evenodd" clip-rule="evenodd" d="M288.626 41.1654C288.626 41.2701 288.553 41.3549 288.463 41.3549C285.938 41.3549 284.592 42.0052 282.44 43.0448C282.272 43.1261 282.099 43.2097 281.92 43.2956C281.62 43.4395 281.279 43.3507 280.938 43.1468C280.593 42.9408 280.217 42.5991 279.825 42.1712C279.04 41.3143 278.161 40.0789 277.303 38.7858C276.727 37.9186 276.158 37.0197 275.63 36.187C275.371 35.7777 275.121 35.3844 274.887 35.0187C274.529 34.4623 274.206 33.9699 273.928 33.5784C273.648 33.183 273.425 32.9038 273.267 32.7631C269.05 29.0054 263.157 32.0653 262.148 37.3578C261.9 38.6615 261.631 39.6408 261.339 40.359C261.048 41.0761 260.726 41.5479 260.364 41.816C259.625 42.3633 258.804 42.0056 257.969 41.483C257.72 41.3271 257.467 41.1549 257.208 40.9785C256.569 40.5442 255.893 40.0847 255.151 39.7814C254.124 39.3615 252.995 39.2566 251.735 39.9909C251.35 40.2151 250.808 40.75 250.201 41.4472C249.598 42.1388 248.946 42.9723 248.343 43.7745C247.741 44.5752 247.189 45.3423 246.786 45.9029L246.785 45.9051C246.583 46.185 246.418 46.4144 246.303 46.5697C246.246 46.6469 246.199 46.7085 246.166 46.7495C246.15 46.7686 246.132 46.7893 246.116 46.805L246.115 46.8055C246.11 46.8106 246.09 46.8301 246.061 46.8425C246.05 46.8473 246.002 46.8684 245.944 46.8428C245.867 46.8087 245.843 46.7287 245.839 46.6872C245.638 44.8105 244.734 42.7873 243.462 41.309C242.189 39.8298 240.572 38.9234 238.948 39.2145C236.321 39.6855 234.803 41.5333 233.538 43.7565C233.134 44.4676 232.76 45.2084 232.383 45.9542C232.167 46.3813 231.951 46.81 231.727 47.2358C231.118 48.3971 230.463 49.5213 229.654 50.4632C229.554 50.5797 229.443 50.6544 229.321 50.6812C229.199 50.7079 229.082 50.6839 228.974 50.6333C228.767 50.5357 228.573 50.3269 228.4 50.1151C228.312 50.0066 228.225 49.891 228.141 49.7799L228.14 49.7788C228.056 49.667 227.975 49.5599 227.896 49.4632C227.817 49.366 227.743 49.2836 227.674 49.2208C227.604 49.1571 227.547 49.1212 227.503 49.1063C226.893 48.9032 226.074 48.8567 225.243 48.9093C224.415 48.9618 223.589 49.1117 222.973 49.2912C221.985 49.5791 220.731 50.3367 219.33 51.3019C218.569 51.8259 217.779 52.4019 216.97 52.991C216.284 53.4902 215.586 53.9988 214.882 54.4931C213.359 55.5631 211.832 56.5506 210.438 57.1654C209.051 57.7775 207.761 58.0357 206.731 57.5936C205.944 57.2555 205.249 56.8944 204.595 56.5446C204.48 56.4832 204.367 56.4222 204.254 56.3618C203.725 56.0771 203.219 55.805 202.701 55.5609C201.452 54.972 200.145 54.5507 198.347 54.5507C197.521 54.5507 197.055 54.7565 196.745 55.0112C196.589 55.1401 196.466 55.2863 196.355 55.4386C196.306 55.5051 196.26 55.5714 196.214 55.6387L196.192 55.6702C196.139 55.7473 196.084 55.8258 196.026 55.9003C195.91 56.0501 195.778 56.1914 195.604 56.293C195.429 56.3952 195.222 56.4513 194.964 56.4487C194.455 56.4437 193.733 56.2107 192.62 55.634C190.957 54.7727 189.464 53.3933 187.989 51.9626C187.816 51.7954 187.644 51.6275 187.472 51.4596C186.166 50.1851 184.859 48.9098 183.429 47.9265C182.961 47.6048 182.134 46.9027 181.09 46.0157C180.726 45.7066 180.335 45.375 179.924 45.0293C178.327 43.6856 176.408 42.116 174.489 40.7761C172.566 39.434 170.656 38.3321 169.076 37.9117C168.286 37.7016 167.593 37.6656 167.027 37.842C166.467 38.0163 166.024 38.3999 165.726 39.0548C164.83 41.0287 164.893 43.2016 164.958 45.421C164.963 45.5943 164.968 45.7679 164.973 45.9417C165.037 48.3214 165.013 50.7318 163.614 52.8281C161.666 55.7477 160.293 59.3593 160.293 63.1584C160.293 64.1242 160.052 66.986 159.689 69.4831C159.508 70.7316 159.294 71.9013 159.062 72.7024C158.947 73.0983 158.822 73.4266 158.682 73.627C158.612 73.727 158.524 73.8173 158.414 73.8494C158.292 73.8848 158.179 73.8401 158.087 73.7506C157.201 72.8904 155.726 72.4648 153.941 72.2542C152.414 72.074 150.69 72.0536 148.968 72.0332C148.685 72.0299 148.401 72.0265 148.119 72.0224C146.126 71.9938 144.177 71.9298 142.61 71.5727C141.053 71.2178 139.814 70.5601 139.327 69.2834C139.025 68.4903 138.899 67.7237 138.811 67.0269C138.791 66.8669 138.773 66.7118 138.755 66.5615C138.696 66.0483 138.643 65.5909 138.534 65.1821C138.396 64.6671 138.174 64.2509 137.744 63.9417C137.307 63.6271 136.638 63.412 135.588 63.3476C134.1 63.2564 133.091 62.9483 132.408 62.4249C131.715 61.895 131.374 61.1592 131.193 60.2709C131.037 59.5049 130.998 58.6092 130.954 57.6228C130.948 57.4802 130.941 57.3357 130.934 57.1895C130.88 56.0233 130.797 54.7234 130.51 53.305C130.464 53.0766 130.417 52.7382 130.364 52.354C130.348 52.2418 130.332 52.1258 130.315 52.0074C130.24 51.4771 130.15 50.8894 130.03 50.356C129.91 49.8176 129.765 49.3563 129.588 49.0655C129.501 48.9214 129.414 48.833 129.33 48.7906C129.251 48.751 129.162 48.7446 129.05 48.7952C126.345 50.0212 123.563 50.8793 120.772 51.7399L120.593 51.7953C118.388 52.4754 116.874 52.8434 115.806 52.898C114.732 52.9528 114.073 52.6922 113.62 52.0737C113.399 51.7723 113.235 51.3966 113.092 50.9598C112.948 50.5234 112.822 50.0138 112.681 49.4413L112.664 49.3696C112.384 48.2335 112.039 46.8286 111.386 45.1537C110.821 43.7051 110.038 42.7123 109.143 41.8232C108.743 41.425 108.322 41.0492 107.887 40.661C107.835 40.6143 107.782 40.5675 107.73 40.5203C107.24 40.0828 106.736 39.626 106.236 39.1078C105.873 38.7313 105.3 38.337 104.626 37.9183C104.33 37.7346 104.01 37.5433 103.683 37.3477C103.281 37.1075 102.869 36.861 102.478 36.6142C101.759 36.1608 101.071 35.6821 100.547 35.1745C100.028 34.6715 99.6402 34.1121 99.5774 33.49C99.4512 32.2397 99.0265 31.6633 98.4826 31.4552C97.9149 31.2379 97.1624 31.3969 96.3432 31.7778C94.7133 32.5358 92.9605 34.104 92.239 34.7766C91.3593 35.5968 90.4888 36.3966 89.6299 37.1858C83.339 42.9658 77.6686 48.1758 73.511 56.6545L73.4799 56.718C73.0988 57.4962 71.7753 60.1985 70.4928 61.9388C70.1622 62.3875 69.8295 62.779 69.512 63.0581C69.1993 63.3331 68.8775 63.5204 68.573 63.5128C68.2471 63.5046 67.9886 63.2768 67.8111 62.8553C67.6375 62.4429 67.53 61.8243 67.4933 60.9686C67.3831 58.3996 66.5723 55.6534 65.5244 52.9864C64.7059 50.9032 63.748 48.8808 62.8746 47.037C62.63 46.5205 62.3921 46.0181 62.1656 45.5323C57.9004 36.3802 53.172 26.9507 45.7545 20.9162C45.2163 20.4784 44.7352 20.0969 44.2989 19.7509C43.1365 18.8292 42.2917 18.1592 41.5315 17.3472C40.4786 16.2225 39.5866 14.8262 38.2111 12.1213C38.1096 11.9216 38.0076 11.7204 37.9051 11.5182C36.5016 8.74958 35.0019 5.79117 33.1528 3.75091C32.1634 2.65929 31.0813 1.83934 29.8691 1.45189C28.6592 1.06518 27.308 1.10548 25.7725 1.75616C25.2376 1.98281 24.6655 2.44262 24.0833 3.05166C23.5026 3.65902 22.9207 4.40543 22.3657 5.19282C21.4601 6.4776 20.6339 7.8599 20.0062 8.91022C19.864 9.14825 19.7319 9.36923 19.6114 9.56817C15.1286 16.9688 9.38476 22.7396 3.57324 28.5783C2.63742 29.5185 1.69983 30.4605 0.765441 31.4113C0.697814 31.4802 0.595092 31.4721 0.53601 31.3932C0.476958 31.3144 0.483916 31.1947 0.551574 31.1259C1.48874 30.1722 2.42807 29.2284 3.36471 28.2872C9.17767 22.4466 14.8878 16.7091 19.3457 9.34962C19.4644 9.15355 19.5952 8.93473 19.7365 8.69828C20.3642 7.64811 21.1997 6.25004 22.1144 4.95228C22.6752 4.15672 23.2687 3.39448 23.866 2.76964C24.4617 2.14649 25.0701 1.65054 25.6614 1.4C27.2542 0.725031 28.6744 0.677056 29.9551 1.08642C31.2336 1.49506 32.3611 2.35554 33.3764 3.47571C35.2604 5.55448 36.7825 8.55793 38.1794 11.3141C38.2839 11.5203 38.3877 11.7252 38.4909 11.9281C39.8614 14.6232 40.734 15.9812 41.7512 17.0678C42.4929 17.86 43.3106 18.5085 44.4628 19.4222C44.902 19.7705 45.3898 20.1574 45.9406 20.6055C53.4289 26.6975 58.1887 36.2048 62.4514 45.3514C62.6757 45.8326 62.9121 46.3318 63.1557 46.8461C64.0299 48.6915 64.9958 50.7309 65.8201 52.8287C66.8739 55.5108 67.7048 58.309 67.8181 60.9497C67.8541 61.7879 67.9586 62.3452 68.1031 62.6883C68.2437 63.0223 68.4092 63.1296 68.58 63.1339C68.7724 63.1387 69.02 63.0159 69.3161 62.7556C69.6073 62.4996 69.9227 62.1308 70.2461 61.6919C71.5073 59.9805 72.8179 57.3051 73.1992 56.5266L73.2287 56.4665C77.4196 47.9197 83.1421 42.6628 89.4301 36.8864C90.289 36.0974 91.1584 35.2987 92.0359 34.4807C92.7565 33.8088 94.543 32.207 96.2226 31.4259C97.0582 31.0373 97.9028 30.8344 98.5841 31.0951C99.2892 31.365 99.7652 32.1064 99.9004 33.4458C99.948 33.9176 100.252 34.3958 100.755 34.8831C101.253 35.3657 101.917 35.8299 102.632 36.2809C103.029 36.531 103.429 36.7698 103.822 37.0048C104.147 37.199 104.468 37.3906 104.779 37.5839C105.452 38.0018 106.056 38.4145 106.452 38.8245C106.943 39.3329 107.439 39.7825 107.928 40.2197C107.98 40.2668 108.033 40.3137 108.086 40.3606C108.519 40.7479 108.947 41.1299 109.354 41.5349C110.271 42.4459 111.091 43.4811 111.682 44.9969C112.346 46.6976 112.696 48.125 112.975 49.2619L112.994 49.3369C113.135 49.9131 113.258 50.4062 113.395 50.8244C113.532 51.2421 113.68 51.5728 113.867 51.8275C114.229 52.3212 114.768 52.5716 115.792 52.5193C116.821 52.4668 118.303 52.1094 120.509 51.4289L120.682 51.3758C123.477 50.5136 126.244 49.6602 128.932 48.442C129.117 48.3583 129.295 48.3603 129.459 48.4428C129.617 48.5226 129.747 48.6701 129.854 48.8464C130.066 49.1965 130.223 49.7144 130.345 50.2605C130.468 50.8116 130.56 51.4137 130.636 51.9455C130.654 52.0699 130.67 52.19 130.686 52.3045C130.739 52.685 130.784 53.004 130.827 53.2182C131.12 54.6704 131.204 55.9977 131.259 57.1688C131.266 57.3169 131.273 57.4621 131.279 57.6046C131.323 58.5967 131.361 59.4536 131.51 60.1834C131.677 61.0063 131.982 61.6456 132.586 62.1082C133.199 62.5772 134.139 62.8793 135.605 62.9692C136.679 63.035 137.41 63.2564 137.915 63.6192C138.427 63.9875 138.69 64.4898 138.844 65.0695C138.962 65.5117 139.02 66.0118 139.08 66.5314C139.097 66.677 139.114 66.8242 139.133 66.972C139.219 67.6571 139.34 68.3835 139.624 69.1295C140.041 70.2222 141.13 70.8491 142.673 71.2007C144.206 71.5502 146.126 71.6148 148.123 71.6435C148.404 71.6475 148.686 71.6509 148.969 71.6542C150.69 71.6745 152.431 71.695 153.974 71.8771C155.763 72.0883 157.328 72.52 158.295 73.4595C158.326 73.489 158.335 73.4818 158.335 73.4817C158.347 73.4784 158.379 73.4604 158.43 73.3881C158.53 73.2439 158.641 72.9716 158.754 72.5812C158.977 71.8098 159.187 70.6645 159.368 69.4199C159.73 66.9306 159.968 64.0929 159.968 63.1584C159.968 59.2533 161.377 55.5621 163.357 52.5954C164.678 50.6174 164.712 48.337 164.648 45.9534C164.643 45.7753 164.638 45.5965 164.633 45.4172C164.567 43.2178 164.5 40.9449 165.439 38.8775C165.78 38.1262 166.299 37.6765 166.943 37.4759C167.58 37.2774 168.332 37.325 169.148 37.5422C170.781 37.9765 172.727 39.1046 174.656 40.451C176.588 41.7995 178.516 43.3769 180.115 44.722C180.535 45.0753 180.931 45.4118 181.298 45.7237C182.335 46.6043 183.141 47.2885 183.594 47.6001C185.049 48.6004 186.378 49.8972 187.681 51.1693C187.854 51.3373 188.025 51.5049 188.197 51.6714C189.673 53.1034 191.135 54.4503 192.752 55.2877C193.858 55.8609 194.529 56.0654 194.966 56.0698C195.181 56.0719 195.336 56.0257 195.458 55.9542C195.582 55.8819 195.683 55.7779 195.785 55.6466C195.836 55.5805 195.886 55.5094 195.939 55.4324C195.991 55.3565 196.047 55.2744 196.108 55.1925C196.229 55.0272 196.371 54.8555 196.558 54.7017C196.935 54.3909 197.472 54.1717 198.347 54.1717C200.195 54.1717 201.545 54.6068 202.823 55.2096C203.349 55.4574 203.863 55.7342 204.393 56.019C204.505 56.0791 204.617 56.1395 204.731 56.2002C205.383 56.5489 206.068 56.9051 206.844 57.238C207.759 57.6307 208.953 57.4155 210.323 56.811C211.688 56.209 213.194 55.2366 214.714 54.1685C215.405 53.6836 216.102 53.1755 216.79 52.675C217.606 52.081 218.407 51.4975 219.164 50.9757C220.564 50.0114 221.855 49.2264 222.895 48.9235C223.532 48.7378 224.378 48.5846 225.225 48.5309C226.07 48.4774 226.931 48.5218 227.592 48.7419C227.694 48.7757 227.788 48.844 227.874 48.9223C227.961 49.0016 228.048 49.0992 228.132 49.2022C228.215 49.3043 228.299 49.416 228.382 49.5257L228.385 49.5295C228.47 49.6416 228.553 49.7518 228.636 49.8543C228.807 50.0644 228.96 50.2178 229.096 50.282C229.161 50.3123 229.214 50.319 229.26 50.3088C229.307 50.2987 229.361 50.2686 229.424 50.1952C230.205 49.2856 230.844 48.192 231.45 47.038C231.667 46.6244 231.881 46.201 232.096 45.776C232.476 45.0232 232.859 44.2652 233.267 43.5471C234.553 41.2864 236.139 39.3347 238.898 38.8399C240.661 38.524 242.376 39.5118 243.692 41.0406C244.921 42.4697 245.825 44.3951 246.111 46.2496C246.219 46.1012 246.363 45.9011 246.535 45.6617L246.538 45.6587C246.94 45.0984 247.494 44.3286 248.098 43.5247C248.704 42.7197 249.362 41.8783 249.973 41.1772C250.579 40.4817 251.153 39.9061 251.589 39.6519C252.946 38.8617 254.169 38.9782 255.259 39.4238C256.032 39.7398 256.752 40.2293 257.4 40.6698C257.652 40.8414 257.894 41.0056 258.123 41.1491C258.969 41.6783 259.625 41.9146 260.19 41.4961C260.48 41.2813 260.768 40.8802 261.045 40.1967C261.323 39.5144 261.585 38.5655 261.831 37.2756C262.888 31.7305 269.047 28.5254 273.464 32.4621C273.655 32.632 273.899 32.9423 274.179 33.3371C274.462 33.7359 274.789 34.2343 275.147 34.7916C275.384 35.1611 275.635 35.5565 275.895 35.9669C276.421 36.7977 276.987 37.69 277.56 38.554C278.416 39.845 279.282 41.0598 280.047 41.8946C280.43 42.3126 280.781 42.627 281.086 42.8096C281.395 42.9942 281.627 43.0262 281.796 42.9452C281.976 42.8587 282.151 42.7744 282.321 42.6923C284.473 41.6522 285.872 40.976 288.463 40.976C288.553 40.976 288.626 41.0608 288.626 41.1654Z" fill="white"/>
</svg>
